<mxfile host="" modified="2020-05-24T15:21:41.060Z" agent="5.0 (X11; Linux x86_64) AppleWebKit/537.36 (KHTML, like Gecko) Code/1.45.0 Chrome/78.0.3904.130 Electron/7.2.4 Safari/537.36" version="13.1.3" etag="lrwgP8mNOWNbAz78NI_h" pages="2">
            <diagram id="diagramid" name="Diagram">
              <mxGraphModel><root><mxCell id="0"/><mxCell id="1" parent="0"/><mxCell id="2" value="GopherHolesApi" style="outlineConnect=0;fontColor=#B3B3B3;gradientColor=#945DF2;gradientDirection=north;fillColor=#5A30B5;strokeColor=#ffffff;dashed=0;verticalLabelPosition=bottom;verticalAlign=top;align=center;html=1;fontSize=12;fontStyle=0;aspect=fixed;shape=mxgraph.aws4.resourceIcon;resIcon=mxgraph.aws4.api_gateway;" vertex="1" parent="1"><mxGeometry y="500" width="50" height="50" as="geometry"/></mxCell><mxCell id="3" value="AddGopherFunction" style="outlineConnect=0;fontColor=#B3B3B3;gradientColor=#F78E04;gradientDirection=north;fillColor=#D05C17;strokeColor=#ffffff;dashed=0;verticalLabelPosition=bottom;verticalAlign=top;align=center;html=1;fontSize=12;fontStyle=0;aspect=fixed;shape=mxgraph.aws4.resourceIcon;resIcon=mxgraph.aws4.lambda;" vertex="1" parent="1"><mxGeometry x="250" width="50" height="50" as="geometry"/></mxCell><mxCell id="4" value="AddGopherRole" style="outlineConnect=0;fontColor=#B3B3B3;gradientColor=#F54749;gradientDirection=north;fillColor=#C7131F;strokeColor=#ffffff;dashed=0;verticalLabelPosition=bottom;verticalAlign=top;align=center;html=1;fontSize=12;fontStyle=0;aspect=fixed;shape=mxgraph.aws4.resourceIcon;resIcon=mxgraph.aws4.role;" vertex="1" parent="1"><mxGeometry x="500" width="50" height="50" as="geometry"/></mxCell><mxCell id="5" value="AddGopherStatusFunction" style="outlineConnect=0;fontColor=#B3B3B3;gradientColor=#F78E04;gradientDirection=north;fillColor=#D05C17;strokeColor=#ffffff;dashed=0;verticalLabelPosition=bottom;verticalAlign=top;align=center;html=1;fontSize=12;fontStyle=0;aspect=fixed;shape=mxgraph.aws4.resourceIcon;resIcon=mxgraph.aws4.lambda;" vertex="1" parent="1"><mxGeometry x="250" y="100" width="50" height="50" as="geometry"/></mxCell><mxCell id="6" value="AddGopherStatusRole" style="outlineConnect=0;fontColor=#B3B3B3;gradientColor=#F54749;gradientDirection=north;fillColor=#C7131F;strokeColor=#ffffff;dashed=0;verticalLabelPosition=bottom;verticalAlign=top;align=center;html=1;fontSize=12;fontStyle=0;aspect=fixed;shape=mxgraph.aws4.resourceIcon;resIcon=mxgraph.aws4.role;" vertex="1" parent="1"><mxGeometry x="500" y="100" width="50" height="50" as="geometry"/></mxCell><mxCell id="7" value="GetAllGophersFunction" style="outlineConnect=0;fontColor=#B3B3B3;gradientColor=#F78E04;gradientDirection=north;fillColor=#D05C17;strokeColor=#ffffff;dashed=0;verticalLabelPosition=bottom;verticalAlign=top;align=center;html=1;fontSize=12;fontStyle=0;aspect=fixed;shape=mxgraph.aws4.resourceIcon;resIcon=mxgraph.aws4.lambda;" vertex="1" parent="1"><mxGeometry x="250" y="200" width="50" height="50" as="geometry"/></mxCell><mxCell id="8" value="GetAllGophersRole" style="outlineConnect=0;fontColor=#B3B3B3;gradientColor=#F54749;gradientDirection=north;fillColor=#C7131F;strokeColor=#ffffff;dashed=0;verticalLabelPosition=bottom;verticalAlign=top;align=center;html=1;fontSize=12;fontStyle=0;aspect=fixed;shape=mxgraph.aws4.resourceIcon;resIcon=mxgraph.aws4.role;" vertex="1" parent="1"><mxGeometry x="500" y="200" width="50" height="50" as="geometry"/></mxCell><mxCell id="9" value="GetGopherFunction" style="outlineConnect=0;fontColor=#B3B3B3;gradientColor=#F78E04;gradientDirection=north;fillColor=#D05C17;strokeColor=#ffffff;dashed=0;verticalLabelPosition=bottom;verticalAlign=top;align=center;html=1;fontSize=12;fontStyle=0;aspect=fixed;shape=mxgraph.aws4.resourceIcon;resIcon=mxgraph.aws4.lambda;" vertex="1" parent="1"><mxGeometry x="250" y="300" width="50" height="50" as="geometry"/></mxCell><mxCell id="10" value="GetGopherRole" style="outlineConnect=0;fontColor=#B3B3B3;gradientColor=#F54749;gradientDirection=north;fillColor=#C7131F;strokeColor=#ffffff;dashed=0;verticalLabelPosition=bottom;verticalAlign=top;align=center;html=1;fontSize=12;fontStyle=0;aspect=fixed;shape=mxgraph.aws4.resourceIcon;resIcon=mxgraph.aws4.role;" vertex="1" parent="1"><mxGeometry x="500" y="300" width="50" height="50" as="geometry"/></mxCell><mxCell id="11" value="UpdateGopherFunction" style="outlineConnect=0;fontColor=#B3B3B3;gradientColor=#F78E04;gradientDirection=north;fillColor=#D05C17;strokeColor=#ffffff;dashed=0;verticalLabelPosition=bottom;verticalAlign=top;align=center;html=1;fontSize=12;fontStyle=0;aspect=fixed;shape=mxgraph.aws4.resourceIcon;resIcon=mxgraph.aws4.lambda;" vertex="1" parent="1"><mxGeometry x="250" y="400" width="50" height="50" as="geometry"/></mxCell><mxCell id="12" value="UpdateGopherRole" style="outlineConnect=0;fontColor=#B3B3B3;gradientColor=#F54749;gradientDirection=north;fillColor=#C7131F;strokeColor=#ffffff;dashed=0;verticalLabelPosition=bottom;verticalAlign=top;align=center;html=1;fontSize=12;fontStyle=0;aspect=fixed;shape=mxgraph.aws4.resourceIcon;resIcon=mxgraph.aws4.role;" vertex="1" parent="1"><mxGeometry x="500" y="400" width="50" height="50" as="geometry"/></mxCell><mxCell id="13" value="DeleteGopherFunction" style="outlineConnect=0;fontColor=#B3B3B3;gradientColor=#F78E04;gradientDirection=north;fillColor=#D05C17;strokeColor=#ffffff;dashed=0;verticalLabelPosition=bottom;verticalAlign=top;align=center;html=1;fontSize=12;fontStyle=0;aspect=fixed;shape=mxgraph.aws4.resourceIcon;resIcon=mxgraph.aws4.lambda;" vertex="1" parent="1"><mxGeometry x="250" y="500" width="50" height="50" as="geometry"/></mxCell><mxCell id="14" value="DeleteGopherRole" style="outlineConnect=0;fontColor=#B3B3B3;gradientColor=#F54749;gradientDirection=north;fillColor=#C7131F;strokeColor=#ffffff;dashed=0;verticalLabelPosition=bottom;verticalAlign=top;align=center;html=1;fontSize=12;fontStyle=0;aspect=fixed;shape=mxgraph.aws4.resourceIcon;resIcon=mxgraph.aws4.role;" vertex="1" parent="1"><mxGeometry x="500" y="500" width="50" height="50" as="geometry"/></mxCell><mxCell id="15" value="AddHoleFunction" style="outlineConnect=0;fontColor=#B3B3B3;gradientColor=#F78E04;gradientDirection=north;fillColor=#D05C17;strokeColor=#ffffff;dashed=0;verticalLabelPosition=bottom;verticalAlign=top;align=center;html=1;fontSize=12;fontStyle=0;aspect=fixed;shape=mxgraph.aws4.resourceIcon;resIcon=mxgraph.aws4.lambda;" vertex="1" parent="1"><mxGeometry x="250" y="600" width="50" height="50" as="geometry"/></mxCell><mxCell id="16" value="AddHoleRole" style="outlineConnect=0;fontColor=#B3B3B3;gradientColor=#F54749;gradientDirection=north;fillColor=#C7131F;strokeColor=#ffffff;dashed=0;verticalLabelPosition=bottom;verticalAlign=top;align=center;html=1;fontSize=12;fontStyle=0;aspect=fixed;shape=mxgraph.aws4.resourceIcon;resIcon=mxgraph.aws4.role;" vertex="1" parent="1"><mxGeometry x="500" y="600" width="50" height="50" as="geometry"/></mxCell><mxCell id="17" value="AddHoleStatusFunction" style="outlineConnect=0;fontColor=#B3B3B3;gradientColor=#F78E04;gradientDirection=north;fillColor=#D05C17;strokeColor=#ffffff;dashed=0;verticalLabelPosition=bottom;verticalAlign=top;align=center;html=1;fontSize=12;fontStyle=0;aspect=fixed;shape=mxgraph.aws4.resourceIcon;resIcon=mxgraph.aws4.lambda;" vertex="1" parent="1"><mxGeometry x="250" y="700" width="50" height="50" as="geometry"/></mxCell><mxCell id="18" value="AddHoleStatusRole" style="outlineConnect=0;fontColor=#B3B3B3;gradientColor=#F54749;gradientDirection=north;fillColor=#C7131F;strokeColor=#ffffff;dashed=0;verticalLabelPosition=bottom;verticalAlign=top;align=center;html=1;fontSize=12;fontStyle=0;aspect=fixed;shape=mxgraph.aws4.resourceIcon;resIcon=mxgraph.aws4.role;" vertex="1" parent="1"><mxGeometry x="500" y="700" width="50" height="50" as="geometry"/></mxCell><mxCell id="19" value="GetAllHolesFunction" style="outlineConnect=0;fontColor=#B3B3B3;gradientColor=#F78E04;gradientDirection=north;fillColor=#D05C17;strokeColor=#ffffff;dashed=0;verticalLabelPosition=bottom;verticalAlign=top;align=center;html=1;fontSize=12;fontStyle=0;aspect=fixed;shape=mxgraph.aws4.resourceIcon;resIcon=mxgraph.aws4.lambda;" vertex="1" parent="1"><mxGeometry x="250" y="800" width="50" height="50" as="geometry"/></mxCell><mxCell id="20" value="GetAllHolesRole" style="outlineConnect=0;fontColor=#B3B3B3;gradientColor=#F54749;gradientDirection=north;fillColor=#C7131F;strokeColor=#ffffff;dashed=0;verticalLabelPosition=bottom;verticalAlign=top;align=center;html=1;fontSize=12;fontStyle=0;aspect=fixed;shape=mxgraph.aws4.resourceIcon;resIcon=mxgraph.aws4.role;" vertex="1" parent="1"><mxGeometry x="500" y="800" width="50" height="50" as="geometry"/></mxCell><mxCell id="21" value="GetHoleFunction" style="outlineConnect=0;fontColor=#B3B3B3;gradientColor=#F78E04;gradientDirection=north;fillColor=#D05C17;strokeColor=#ffffff;dashed=0;verticalLabelPosition=bottom;verticalAlign=top;align=center;html=1;fontSize=12;fontStyle=0;aspect=fixed;shape=mxgraph.aws4.resourceIcon;resIcon=mxgraph.aws4.lambda;" vertex="1" parent="1"><mxGeometry x="250" y="900" width="50" height="50" as="geometry"/></mxCell><mxCell id="22" value="GetHoleRole" style="outlineConnect=0;fontColor=#B3B3B3;gradientColor=#F54749;gradientDirection=north;fillColor=#C7131F;strokeColor=#ffffff;dashed=0;verticalLabelPosition=bottom;verticalAlign=top;align=center;html=1;fontSize=12;fontStyle=0;aspect=fixed;shape=mxgraph.aws4.resourceIcon;resIcon=mxgraph.aws4.role;" vertex="1" parent="1"><mxGeometry x="500" y="900" width="50" height="50" as="geometry"/></mxCell><mxCell id="23" value="UpdateHoleFunction" style="outlineConnect=0;fontColor=#B3B3B3;gradientColor=#F78E04;gradientDirection=north;fillColor=#D05C17;strokeColor=#ffffff;dashed=0;verticalLabelPosition=bottom;verticalAlign=top;align=center;html=1;fontSize=12;fontStyle=0;aspect=fixed;shape=mxgraph.aws4.resourceIcon;resIcon=mxgraph.aws4.lambda;" vertex="1" parent="1"><mxGeometry x="250" y="1000" width="50" height="50" as="geometry"/></mxCell><mxCell id="24" value="UpdateHoleRole" style="outlineConnect=0;fontColor=#B3B3B3;gradientColor=#F54749;gradientDirection=north;fillColor=#C7131F;strokeColor=#ffffff;dashed=0;verticalLabelPosition=bottom;verticalAlign=top;align=center;html=1;fontSize=12;fontStyle=0;aspect=fixed;shape=mxgraph.aws4.resourceIcon;resIcon=mxgraph.aws4.role;" vertex="1" parent="1"><mxGeometry x="500" y="1000" width="50" height="50" as="geometry"/></mxCell><mxCell id="25" value="GopherHolesTable" style="outlineConnect=0;fontColor=#B3B3B3;gradientColor=#4D72F3;gradientDirection=north;fillColor=#3334B9;strokeColor=#ffffff;dashed=0;verticalLabelPosition=bottom;verticalAlign=top;align=center;html=1;fontSize=12;fontStyle=0;aspect=fixed;shape=mxgraph.aws4.resourceIcon;resIcon=mxgraph.aws4.dynamodb;" vertex="1" parent="1"><mxGeometry x="750" y="550" width="50" height="50" as="geometry"/></mxCell><mxCell id="26" value="iam  aws&#xA;policy/awslambdaexecute" style="outlineConnect=0;fontColor=#B3B3B3;gradientColor=#aaaaaa;gradientDirection=north;fillColor=#aaaaaa;strokeColor=#ffffff;dashed=0;verticalLabelPosition=bottom;verticalAlign=top;align=center;html=1;fontSize=12;fontStyle=0;aspect=fixed;shape=mxgraph.aws4.resourceIcon;resIcon=mxgraph.aws4.identity_and_access_management;" vertex="1" parent="1"><mxGeometry x="750" y="450" width="50" height="50" as="geometry"/></mxCell><mxCell id="GopherHolesApi|AddGopherFunction" value="Invoke" style="edgeStyle=orthogonalEdgeStyle;rounded=1;orthogonalLoop=1;jettySize=auto;html=1;fillColor=#1ba1e2;strokeColor=#006EAF;labelBackgroundColor=none;fontColor=#7EA6E0;noEdgeStyle=1;orthogonal=1;" edge="1" parent="1" source="2" target="3"><mxGeometry relative="1" as="geometry"><Array as="points"><mxPoint x="62" y="502.27272727272725"/><mxPoint x="238" y="25"/></Array></mxGeometry></mxCell><mxCell id="AddGopherRole|AddGopherFunction" value="Role" style="edgeStyle=orthogonalEdgeStyle;rounded=1;orthogonalLoop=1;jettySize=auto;html=1;labelBackgroundColor=none;fontColor=#EA6B66;noEdgeStyle=1;orthogonal=1;" edge="1" parent="1" source="3" target="4"><mxGeometry relative="1" as="geometry"><Array as="points"><mxPoint x="312" y="25"/><mxPoint x="488" y="25"/></Array></mxGeometry></mxCell><mxCell id="iam  aws&#xA;policy/awslambdaexecute|AddGopherRole" value="ManagedPolicyArns" style="edgeStyle=orthogonalEdgeStyle;rounded=1;orthogonalLoop=1;jettySize=auto;html=1;labelBackgroundColor=none;fontColor=#EA6B66;noEdgeStyle=1;orthogonal=1;" edge="1" parent="1" source="4" target="26"><mxGeometry relative="1" as="geometry"><Array as="points"><mxPoint x="562" y="15"/><mxPoint x="738" y="452.27272727272725"/></Array></mxGeometry></mxCell><mxCell id="GopherHolesTable|AddGopherRole" value="PolicyDocument" style="edgeStyle=orthogonalEdgeStyle;rounded=1;orthogonalLoop=1;jettySize=auto;html=1;labelBackgroundColor=none;fontColor=#EA6B66;noEdgeStyle=1;orthogonal=1;" edge="1" parent="1" source="4" target="25"><mxGeometry relative="1" as="geometry"><Array as="points"><mxPoint x="562" y="35"/><mxPoint x="738" y="552.2727272727273"/></Array></mxGeometry></mxCell><mxCell id="GopherHolesApi|AddGopherStatusFunction" value="Invoke" style="edgeStyle=orthogonalEdgeStyle;rounded=1;orthogonalLoop=1;jettySize=auto;html=1;fillColor=#1ba1e2;strokeColor=#006EAF;labelBackgroundColor=none;fontColor=#7EA6E0;noEdgeStyle=1;orthogonal=1;" edge="1" parent="1" source="2" target="5"><mxGeometry relative="1" as="geometry"><Array as="points"><mxPoint x="64" y="506.8181818181818"/><mxPoint x="238" y="125"/></Array></mxGeometry></mxCell><mxCell id="AddGopherStatusRole|AddGopherStatusFunction" value="Role" style="edgeStyle=orthogonalEdgeStyle;rounded=1;orthogonalLoop=1;jettySize=auto;html=1;labelBackgroundColor=none;fontColor=#EA6B66;noEdgeStyle=1;orthogonal=1;" edge="1" parent="1" source="5" target="6"><mxGeometry relative="1" as="geometry"><Array as="points"><mxPoint x="312" y="125"/><mxPoint x="488" y="125"/></Array></mxGeometry></mxCell><mxCell id="iam  aws&#xA;policy/awslambdaexecute|AddGopherStatusRole" value="ManagedPolicyArns" style="edgeStyle=orthogonalEdgeStyle;rounded=1;orthogonalLoop=1;jettySize=auto;html=1;labelBackgroundColor=none;fontColor=#EA6B66;noEdgeStyle=1;orthogonal=1;" edge="1" parent="1" source="6" target="26"><mxGeometry relative="1" as="geometry"><Array as="points"><mxPoint x="562" y="115"/><mxPoint x="736" y="456.8181818181818"/></Array></mxGeometry></mxCell><mxCell id="GopherHolesTable|AddGopherStatusRole" value="PolicyDocument" style="edgeStyle=orthogonalEdgeStyle;rounded=1;orthogonalLoop=1;jettySize=auto;html=1;labelBackgroundColor=none;fontColor=#EA6B66;noEdgeStyle=1;orthogonal=1;" edge="1" parent="1" source="6" target="25"><mxGeometry relative="1" as="geometry"><Array as="points"><mxPoint x="562" y="135"/><mxPoint x="736" y="556.8181818181818"/></Array></mxGeometry></mxCell><mxCell id="GopherHolesApi|GetAllGophersFunction" value="Invoke" style="edgeStyle=orthogonalEdgeStyle;rounded=1;orthogonalLoop=1;jettySize=auto;html=1;fillColor=#1ba1e2;strokeColor=#006EAF;labelBackgroundColor=none;fontColor=#7EA6E0;noEdgeStyle=1;orthogonal=1;" edge="1" parent="1" source="2" target="7"><mxGeometry relative="1" as="geometry"><Array as="points"><mxPoint x="66" y="511.3636363636364"/><mxPoint x="238" y="225"/></Array></mxGeometry></mxCell><mxCell id="GetAllGophersRole|GetAllGophersFunction" value="Role" style="edgeStyle=orthogonalEdgeStyle;rounded=1;orthogonalLoop=1;jettySize=auto;html=1;labelBackgroundColor=none;fontColor=#EA6B66;noEdgeStyle=1;orthogonal=1;" edge="1" parent="1" source="7" target="8"><mxGeometry relative="1" as="geometry"><Array as="points"><mxPoint x="312" y="225"/><mxPoint x="488" y="225"/></Array></mxGeometry></mxCell><mxCell id="iam  aws&#xA;policy/awslambdaexecute|GetAllGophersRole" value="ManagedPolicyArns" style="edgeStyle=orthogonalEdgeStyle;rounded=1;orthogonalLoop=1;jettySize=auto;html=1;labelBackgroundColor=none;fontColor=#EA6B66;noEdgeStyle=1;orthogonal=1;" edge="1" parent="1" source="8" target="26"><mxGeometry relative="1" as="geometry"><Array as="points"><mxPoint x="562" y="215"/><mxPoint x="734" y="461.3636363636364"/></Array></mxGeometry></mxCell><mxCell id="GopherHolesTable|GetAllGophersRole" value="PolicyDocument" style="edgeStyle=orthogonalEdgeStyle;rounded=1;orthogonalLoop=1;jettySize=auto;html=1;labelBackgroundColor=none;fontColor=#EA6B66;noEdgeStyle=1;orthogonal=1;" edge="1" parent="1" source="8" target="25"><mxGeometry relative="1" as="geometry"><Array as="points"><mxPoint x="562" y="235"/><mxPoint x="734" y="561.3636363636363"/></Array></mxGeometry></mxCell><mxCell id="GopherHolesApi|GetGopherFunction" value="Invoke" style="edgeStyle=orthogonalEdgeStyle;rounded=1;orthogonalLoop=1;jettySize=auto;html=1;fillColor=#1ba1e2;strokeColor=#006EAF;labelBackgroundColor=none;fontColor=#7EA6E0;noEdgeStyle=1;orthogonal=1;" edge="1" parent="1" source="2" target="9"><mxGeometry relative="1" as="geometry"><Array as="points"><mxPoint x="68" y="515.9090909090909"/><mxPoint x="238" y="325"/></Array></mxGeometry></mxCell><mxCell id="GetGopherRole|GetGopherFunction" value="Role" style="edgeStyle=orthogonalEdgeStyle;rounded=1;orthogonalLoop=1;jettySize=auto;html=1;labelBackgroundColor=none;fontColor=#EA6B66;noEdgeStyle=1;orthogonal=1;" edge="1" parent="1" source="9" target="10"><mxGeometry relative="1" as="geometry"><Array as="points"><mxPoint x="312" y="325"/><mxPoint x="488" y="325"/></Array></mxGeometry></mxCell><mxCell id="iam  aws&#xA;policy/awslambdaexecute|GetGopherRole" value="ManagedPolicyArns" style="edgeStyle=orthogonalEdgeStyle;rounded=1;orthogonalLoop=1;jettySize=auto;html=1;labelBackgroundColor=none;fontColor=#EA6B66;noEdgeStyle=1;orthogonal=1;" edge="1" parent="1" source="10" target="26"><mxGeometry relative="1" as="geometry"><Array as="points"><mxPoint x="562" y="315"/><mxPoint x="732" y="465.90909090909093"/></Array></mxGeometry></mxCell><mxCell id="GopherHolesTable|GetGopherRole" value="PolicyDocument" style="edgeStyle=orthogonalEdgeStyle;rounded=1;orthogonalLoop=1;jettySize=auto;html=1;labelBackgroundColor=none;fontColor=#EA6B66;noEdgeStyle=1;orthogonal=1;" edge="1" parent="1" source="10" target="25"><mxGeometry relative="1" as="geometry"><Array as="points"><mxPoint x="562" y="335"/><mxPoint x="732" y="565.9090909090908"/></Array></mxGeometry></mxCell><mxCell id="GopherHolesApi|UpdateGopherFunction" value="Invoke" style="edgeStyle=orthogonalEdgeStyle;rounded=1;orthogonalLoop=1;jettySize=auto;html=1;fillColor=#1ba1e2;strokeColor=#006EAF;labelBackgroundColor=none;fontColor=#7EA6E0;noEdgeStyle=1;orthogonal=1;" edge="1" parent="1" source="2" target="11"><mxGeometry relative="1" as="geometry"><Array as="points"><mxPoint x="70" y="520.4545454545454"/><mxPoint x="238" y="425"/></Array></mxGeometry></mxCell><mxCell id="UpdateGopherRole|UpdateGopherFunction" value="Role" style="edgeStyle=orthogonalEdgeStyle;rounded=1;orthogonalLoop=1;jettySize=auto;html=1;labelBackgroundColor=none;fontColor=#EA6B66;noEdgeStyle=1;orthogonal=1;" edge="1" parent="1" source="11" target="12"><mxGeometry relative="1" as="geometry"><Array as="points"><mxPoint x="312" y="425"/><mxPoint x="488" y="425"/></Array></mxGeometry></mxCell><mxCell id="iam  aws&#xA;policy/awslambdaexecute|UpdateGopherRole" value="ManagedPolicyArns" style="edgeStyle=orthogonalEdgeStyle;rounded=1;orthogonalLoop=1;jettySize=auto;html=1;labelBackgroundColor=none;fontColor=#EA6B66;noEdgeStyle=1;orthogonal=1;" edge="1" parent="1" source="12" target="26"><mxGeometry relative="1" as="geometry"><Array as="points"><mxPoint x="562" y="415"/><mxPoint x="730" y="470.4545454545455"/></Array></mxGeometry></mxCell><mxCell id="GopherHolesTable|UpdateGopherRole" value="PolicyDocument" style="edgeStyle=orthogonalEdgeStyle;rounded=1;orthogonalLoop=1;jettySize=auto;html=1;labelBackgroundColor=none;fontColor=#EA6B66;noEdgeStyle=1;orthogonal=1;" edge="1" parent="1" source="12" target="25"><mxGeometry relative="1" as="geometry"><Array as="points"><mxPoint x="562" y="435"/><mxPoint x="730" y="570.4545454545453"/></Array></mxGeometry></mxCell><mxCell id="GopherHolesApi|DeleteGopherFunction" value="Invoke" style="edgeStyle=orthogonalEdgeStyle;rounded=1;orthogonalLoop=1;jettySize=auto;html=1;fillColor=#1ba1e2;strokeColor=#006EAF;labelBackgroundColor=none;fontColor=#7EA6E0;noEdgeStyle=1;orthogonal=1;" edge="1" parent="1" source="2" target="13"><mxGeometry relative="1" as="geometry"><Array as="points"><mxPoint x="72" y="524.9999999999999"/><mxPoint x="238" y="525"/></Array></mxGeometry></mxCell><mxCell id="DeleteGopherRole|DeleteGopherFunction" value="Role" style="edgeStyle=orthogonalEdgeStyle;rounded=1;orthogonalLoop=1;jettySize=auto;html=1;labelBackgroundColor=none;fontColor=#EA6B66;noEdgeStyle=1;orthogonal=1;" edge="1" parent="1" source="13" target="14"><mxGeometry relative="1" as="geometry"><Array as="points"><mxPoint x="312" y="525"/><mxPoint x="488" y="525"/></Array></mxGeometry></mxCell><mxCell id="iam  aws&#xA;policy/awslambdaexecute|DeleteGopherRole" value="ManagedPolicyArns" style="edgeStyle=orthogonalEdgeStyle;rounded=1;orthogonalLoop=1;jettySize=auto;html=1;labelBackgroundColor=none;fontColor=#EA6B66;noEdgeStyle=1;orthogonal=1;" edge="1" parent="1" source="14" target="26"><mxGeometry relative="1" as="geometry"><Array as="points"><mxPoint x="562" y="515"/><mxPoint x="728" y="475.00000000000006"/></Array></mxGeometry></mxCell><mxCell id="GopherHolesTable|DeleteGopherRole" value="PolicyDocument" style="edgeStyle=orthogonalEdgeStyle;rounded=1;orthogonalLoop=1;jettySize=auto;html=1;labelBackgroundColor=none;fontColor=#EA6B66;noEdgeStyle=1;orthogonal=1;" edge="1" parent="1" source="14" target="25"><mxGeometry relative="1" as="geometry"><Array as="points"><mxPoint x="562" y="535"/><mxPoint x="728" y="574.9999999999998"/></Array></mxGeometry></mxCell><mxCell id="GopherHolesApi|AddHoleFunction" value="Invoke" style="edgeStyle=orthogonalEdgeStyle;rounded=1;orthogonalLoop=1;jettySize=auto;html=1;fillColor=#1ba1e2;strokeColor=#006EAF;labelBackgroundColor=none;fontColor=#7EA6E0;noEdgeStyle=1;orthogonal=1;" edge="1" parent="1" source="2" target="15"><mxGeometry relative="1" as="geometry"><Array as="points"><mxPoint x="70" y="529.5454545454544"/><mxPoint x="238" y="625"/></Array></mxGeometry></mxCell><mxCell id="AddHoleRole|AddHoleFunction" value="Role" style="edgeStyle=orthogonalEdgeStyle;rounded=1;orthogonalLoop=1;jettySize=auto;html=1;labelBackgroundColor=none;fontColor=#EA6B66;noEdgeStyle=1;orthogonal=1;" edge="1" parent="1" source="15" target="16"><mxGeometry relative="1" as="geometry"><Array as="points"><mxPoint x="312" y="625"/><mxPoint x="488" y="625"/></Array></mxGeometry></mxCell><mxCell id="iam  aws&#xA;policy/awslambdaexecute|AddHoleRole" value="ManagedPolicyArns" style="edgeStyle=orthogonalEdgeStyle;rounded=1;orthogonalLoop=1;jettySize=auto;html=1;labelBackgroundColor=none;fontColor=#EA6B66;noEdgeStyle=1;orthogonal=1;" edge="1" parent="1" source="16" target="26"><mxGeometry relative="1" as="geometry"><Array as="points"><mxPoint x="562" y="615"/><mxPoint x="730" y="479.5454545454546"/></Array></mxGeometry></mxCell><mxCell id="GopherHolesTable|AddHoleRole" value="PolicyDocument" style="edgeStyle=orthogonalEdgeStyle;rounded=1;orthogonalLoop=1;jettySize=auto;html=1;labelBackgroundColor=none;fontColor=#EA6B66;noEdgeStyle=1;orthogonal=1;" edge="1" parent="1" source="16" target="25"><mxGeometry relative="1" as="geometry"><Array as="points"><mxPoint x="562" y="635"/><mxPoint x="730" y="579.5454545454543"/></Array></mxGeometry></mxCell><mxCell id="GopherHolesApi|AddHoleStatusFunction" value="Invoke" style="edgeStyle=orthogonalEdgeStyle;rounded=1;orthogonalLoop=1;jettySize=auto;html=1;fillColor=#1ba1e2;strokeColor=#006EAF;labelBackgroundColor=none;fontColor=#7EA6E0;noEdgeStyle=1;orthogonal=1;" edge="1" parent="1" source="2" target="17"><mxGeometry relative="1" as="geometry"><Array as="points"><mxPoint x="68" y="534.0909090909089"/><mxPoint x="238" y="725"/></Array></mxGeometry></mxCell><mxCell id="AddHoleStatusRole|AddHoleStatusFunction" value="Role" style="edgeStyle=orthogonalEdgeStyle;rounded=1;orthogonalLoop=1;jettySize=auto;html=1;labelBackgroundColor=none;fontColor=#EA6B66;noEdgeStyle=1;orthogonal=1;" edge="1" parent="1" source="17" target="18"><mxGeometry relative="1" as="geometry"><Array as="points"><mxPoint x="312" y="725"/><mxPoint x="488" y="725"/></Array></mxGeometry></mxCell><mxCell id="iam  aws&#xA;policy/awslambdaexecute|AddHoleStatusRole" value="ManagedPolicyArns" style="edgeStyle=orthogonalEdgeStyle;rounded=1;orthogonalLoop=1;jettySize=auto;html=1;labelBackgroundColor=none;fontColor=#EA6B66;noEdgeStyle=1;orthogonal=1;" edge="1" parent="1" source="18" target="26"><mxGeometry relative="1" as="geometry"><Array as="points"><mxPoint x="562" y="715"/><mxPoint x="732" y="484.0909090909092"/></Array></mxGeometry></mxCell><mxCell id="GopherHolesTable|AddHoleStatusRole" value="PolicyDocument" style="edgeStyle=orthogonalEdgeStyle;rounded=1;orthogonalLoop=1;jettySize=auto;html=1;labelBackgroundColor=none;fontColor=#EA6B66;noEdgeStyle=1;orthogonal=1;" edge="1" parent="1" source="18" target="25"><mxGeometry relative="1" as="geometry"><Array as="points"><mxPoint x="562" y="735"/><mxPoint x="732" y="584.0909090909088"/></Array></mxGeometry></mxCell><mxCell id="GopherHolesApi|GetAllHolesFunction" value="Invoke" style="edgeStyle=orthogonalEdgeStyle;rounded=1;orthogonalLoop=1;jettySize=auto;html=1;fillColor=#1ba1e2;strokeColor=#006EAF;labelBackgroundColor=none;fontColor=#7EA6E0;noEdgeStyle=1;orthogonal=1;" edge="1" parent="1" source="2" target="19"><mxGeometry relative="1" as="geometry"><Array as="points"><mxPoint x="66" y="538.6363636363634"/><mxPoint x="238" y="825"/></Array></mxGeometry></mxCell><mxCell id="GetAllHolesRole|GetAllHolesFunction" value="Role" style="edgeStyle=orthogonalEdgeStyle;rounded=1;orthogonalLoop=1;jettySize=auto;html=1;labelBackgroundColor=none;fontColor=#EA6B66;noEdgeStyle=1;orthogonal=1;" edge="1" parent="1" source="19" target="20"><mxGeometry relative="1" as="geometry"><Array as="points"><mxPoint x="312" y="825"/><mxPoint x="488" y="825"/></Array></mxGeometry></mxCell><mxCell id="iam  aws&#xA;policy/awslambdaexecute|GetAllHolesRole" value="ManagedPolicyArns" style="edgeStyle=orthogonalEdgeStyle;rounded=1;orthogonalLoop=1;jettySize=auto;html=1;labelBackgroundColor=none;fontColor=#EA6B66;noEdgeStyle=1;orthogonal=1;" edge="1" parent="1" source="20" target="26"><mxGeometry relative="1" as="geometry"><Array as="points"><mxPoint x="562" y="815"/><mxPoint x="734" y="488.63636363636374"/></Array></mxGeometry></mxCell><mxCell id="GopherHolesTable|GetAllHolesRole" value="PolicyDocument" style="edgeStyle=orthogonalEdgeStyle;rounded=1;orthogonalLoop=1;jettySize=auto;html=1;labelBackgroundColor=none;fontColor=#EA6B66;noEdgeStyle=1;orthogonal=1;" edge="1" parent="1" source="20" target="25"><mxGeometry relative="1" as="geometry"><Array as="points"><mxPoint x="562" y="835"/><mxPoint x="734" y="588.6363636363633"/></Array></mxGeometry></mxCell><mxCell id="GopherHolesApi|GetHoleFunction" value="Invoke" style="edgeStyle=orthogonalEdgeStyle;rounded=1;orthogonalLoop=1;jettySize=auto;html=1;fillColor=#1ba1e2;strokeColor=#006EAF;labelBackgroundColor=none;fontColor=#7EA6E0;noEdgeStyle=1;orthogonal=1;" edge="1" parent="1" source="2" target="21"><mxGeometry relative="1" as="geometry"><Array as="points"><mxPoint x="64" y="543.1818181818179"/><mxPoint x="238" y="925"/></Array></mxGeometry></mxCell><mxCell id="GetHoleRole|GetHoleFunction" value="Role" style="edgeStyle=orthogonalEdgeStyle;rounded=1;orthogonalLoop=1;jettySize=auto;html=1;labelBackgroundColor=none;fontColor=#EA6B66;noEdgeStyle=1;orthogonal=1;" edge="1" parent="1" source="21" target="22"><mxGeometry relative="1" as="geometry"><Array as="points"><mxPoint x="312" y="925"/><mxPoint x="488" y="925"/></Array></mxGeometry></mxCell><mxCell id="iam  aws&#xA;policy/awslambdaexecute|GetHoleRole" value="ManagedPolicyArns" style="edgeStyle=orthogonalEdgeStyle;rounded=1;orthogonalLoop=1;jettySize=auto;html=1;labelBackgroundColor=none;fontColor=#EA6B66;noEdgeStyle=1;orthogonal=1;" edge="1" parent="1" source="22" target="26"><mxGeometry relative="1" as="geometry"><Array as="points"><mxPoint x="562" y="915"/><mxPoint x="736" y="493.1818181818183"/></Array></mxGeometry></mxCell><mxCell id="GopherHolesTable|GetHoleRole" value="PolicyDocument" style="edgeStyle=orthogonalEdgeStyle;rounded=1;orthogonalLoop=1;jettySize=auto;html=1;labelBackgroundColor=none;fontColor=#EA6B66;noEdgeStyle=1;orthogonal=1;" edge="1" parent="1" source="22" target="25"><mxGeometry relative="1" as="geometry"><Array as="points"><mxPoint x="562" y="935"/><mxPoint x="736" y="593.1818181818178"/></Array></mxGeometry></mxCell><mxCell id="GopherHolesApi|UpdateHoleFunction" value="Invoke" style="edgeStyle=orthogonalEdgeStyle;rounded=1;orthogonalLoop=1;jettySize=auto;html=1;fillColor=#1ba1e2;strokeColor=#006EAF;labelBackgroundColor=none;fontColor=#7EA6E0;noEdgeStyle=1;orthogonal=1;" edge="1" parent="1" source="2" target="23"><mxGeometry relative="1" as="geometry"><Array as="points"><mxPoint x="62" y="547.7272727272724"/><mxPoint x="238" y="1025"/></Array></mxGeometry></mxCell><mxCell id="UpdateHoleRole|UpdateHoleFunction" value="Role" style="edgeStyle=orthogonalEdgeStyle;rounded=1;orthogonalLoop=1;jettySize=auto;html=1;labelBackgroundColor=none;fontColor=#EA6B66;noEdgeStyle=1;orthogonal=1;" edge="1" parent="1" source="23" target="24"><mxGeometry relative="1" as="geometry"><Array as="points"><mxPoint x="312" y="1025"/><mxPoint x="488" y="1025"/></Array></mxGeometry></mxCell><mxCell id="iam  aws&#xA;policy/awslambdaexecute|UpdateHoleRole" value="ManagedPolicyArns" style="edgeStyle=orthogonalEdgeStyle;rounded=1;orthogonalLoop=1;jettySize=auto;html=1;labelBackgroundColor=none;fontColor=#EA6B66;noEdgeStyle=1;orthogonal=1;" edge="1" parent="1" source="24" target="26"><mxGeometry relative="1" as="geometry"><Array as="points"><mxPoint x="562" y="1015"/><mxPoint x="738" y="497.72727272727286"/></Array></mxGeometry></mxCell><mxCell id="GopherHolesTable|UpdateHoleRole" value="PolicyDocument" style="edgeStyle=orthogonalEdgeStyle;rounded=1;orthogonalLoop=1;jettySize=auto;html=1;labelBackgroundColor=none;fontColor=#EA6B66;noEdgeStyle=1;orthogonal=1;" edge="1" parent="1" source="24" target="25"><mxGeometry relative="1" as="geometry"><Array as="points"><mxPoint x="562" y="1035"/><mxPoint x="738" y="597.7272727272723"/></Array></mxGeometry></mxCell></root></mxGraphModel>
            </diagram>
          </mxfile>